#!OML:ASF F:\VICON\USERDATA\INSTALL\rory3\rory3.ASF
:FULLY-SPECIFIED
:DEGREES
247
root -12.1717 17.5207 4.11666 -163.015 82.7232 -162.053
lowerback 12.4367 2.51096 1.49182
upperback 0.0265935 3.64095 0.78165
thorax -6.90838 1.75367 -0.67667
lowerneck -16.7116 -8.81642 -13.9183
upperneck 29.4517 -11.2971 10.6224
head 14.3981 -4.87654 4.70153
rclavicle 2.13942e-014 -1.05853e-014
rhumerus -36.3308 -14.7846 -75.1588
rradius 33.411
rwrist 6.17802
rhand -20.5307 3.73903
rfingers 7.12502
rthumb 5.82748 -26.1608
lclavicle 2.13942e-014 -1.05853e-014
lhumerus -37.0114 9.03456 78.4494
lradius 37.778
lwrist -3.06724
lhand -17.9705 24.6172
lfingers 7.12502
lthumb 8.29876 54.4342
rfemur -1.82546 -2.87371 20.4639
rtibia 29.8905
rfoot -22.7988 -1.92208
rtoes -4.22
lfemur -16.5608 12.0624 -23.2476
ltibia 42.3399
lfoot -17.8956 -5.31077
ltoes 0.799995
248
root -12.1358 17.5172 4.16427 -161.837 82.3809 -160.777
lowerback 12.4553 2.54647 1.67517
upperback 0.0505552 3.72324 0.878513
thorax -6.88703 1.79048 -0.692405
lowerneck -16.7167 -8.8356 -13.9334
upperneck 29.3861 -11.3625 10.767
head 14.3937 -4.88715 4.74972
rclavicle 5.97721e-014 1.72446e-014
rhumerus -36.2697 -14.9344 -75.1762
rradius 33.4486
rwrist 6.04569
rhand -20.2666 4.25791
rfingers 7.12502
rthumb 6.08243 -25.6348
lclavicle 5.97721e-014 1.72446e-014
lhumerus -36.9737 8.96531 78.4857
lradius 37.614
lwrist -3.11896
lhand -17.9887 24.11
lfingers 7.12502
lthumb 8.28128 53.9277
rfemur -1.61948 -2.90416 20.967
rtibia 29.9718
rfoot -22.7681 -2.02517
rtoes -3.30996
lfemur -16.1634 12.6257 -23.3721
ltibia 41.7683
lfoot -17.4131 -2.29423
ltoes 4.79265
249
root -12.0996 17.5333 4.20321 -161.789 81.9699 -160.686
lowerback 12.4663 2.57827 1.77909
upperback 0.0476447 3.78715 0.952167
thorax -6.89369 1.81976 -0.685184
lowerneck -16.6814 -8.86978 -13.9009
upperneck 29.2643 -11.4392 10.8269
head 14.3466 -4.91046 4.74981
rclavicle -3.62409e-014 -6.4605e-015
rhumerus -36.2812 -15.1159 -75.1227
rradius 33.582
rwrist 6.01849
rhand -19.8749 4.39749
rfingers 7.12502
rthumb 6.46059 -25.484
lclavicle -3.62409e-014 -6.4605e-015
lhumerus -36.9516 8.79709 78.5935
lradius 37.5926
lwrist -3.37901
lhand -17.4092 24.5302
lfingers 7.12502
lthumb 8.84052 54.3251
rfemur -1.46318 -3.12839 21.2925
rtibia 30.0489
rfoot -22.6746 -2.11563
rtoes -2.20459
lfemur -15.7656 12.5919 -23.5293
ltibia 41.1364
lfoot -17.3059 0.705716
ltoes 10.0925
250
root -12.0633 17.5431 4.23683 -167.185 81.8916 -166.253
lowerback 12.2995 2.67804 1.03285
upperback 0.024179 3.79083 0.744406
thorax -6.85816 1.84211 -0.478863
lowerneck -16.7748 -8.90486 -13.6958
upperneck 29.2862 -11.5066 10.7106
head 14.362 -4.92677 4.65107
rclavicle -1.76297e-014 1.2921e-015
rhumerus -36.2619 -15.3236 -75.1207
rradius 33.6993
rwrist 6.27721
rhand -19.6014 4.30155
rfingers 7.12502
rthumb 6.72465 -25.5717
lclavicle -1.76297e-014 1.2921e-015
lhumerus -36.9155 8.78864 78.597
lradius 37.611
lwrist -3.71723
lhand -16.7864 25.5656
lfingers 7.12502
lthumb 9.4414 55.3341
rfemur -1.58723 -3.35996 20.6374
rtibia 30.2935
rfoot -22.6248 -2.13551
rtoes -1.84503
lfemur -15.4993 12.22 -24.6483
ltibia 40.338
lfoot -17.5623 3.49688
ltoes 11.4203
251
root -12.0281 17.5195 4.27986 -164.281 81.2951 -162.966
lowerback 12.5746 2.55886 1.53029
upperback 0.103179 3.73115 0.990726
thorax -6.91499 1.80206 -0.499438
lowerneck -16.9191 -8.90034 -13.6288
upperneck 29.4364 -11.48 10.62
head 14.4437 -4.91143 4.60982
rclavicle 3.5862e-014 -1.09332e-015
rhumerus -36.23 -15.1843 -75.2032
rradius 33.8123
rwrist 6.29805
rhand -19.5791 4.24291
rfingers 7.12502
rthumb 6.74619 -25.6296
lclavicle 3.5862e-014 -1.09332e-015
lhumerus -36.9799 8.92343 78.6015
lradius 37.6176
lwrist -3.87766
lhand -16.9421 25.9562
lfingers 7.12502
lthumb 9.2912 55.7314
rfemur -1.22147 -3.77521 21.4608
rtibia 30.6347
rfoot -22.6474 -2.32029
rtoes -2.34128
lfemur -14.7891 12.0265 -24.1597
ltibia 39.5458
lfoot -17.5244 5.9013
ltoes 5.92897
252
root -11.994 17.5022 4.3235 -163.533 80.6749 -162.16
lowerback 12.5339 2.40476 1.66321
upperback 0.138197 3.55507 1.11173
thorax -6.8573 1.71586 -0.411925
lowerneck -17.0725 -8.84944 -13.5245
upperneck 29.4466 -11.4458 10.6949
head 14.474 -4.87002 4.62793
rclavicle -4.23101e-014 9.54166e-015
rhumerus -36.1 -14.9841 -75.4334
rradius 33.9608
rwrist 6.04506
rhand -19.4294 4.28975
rfingers 7.12502
rthumb 6.89066 -25.5781
lclavicle -4.23101e-014 9.54166e-015
lhumerus -37.0178 9.07925 78.5007
lradius 37.562
lwrist -3.67694
lhand -17.3412 25.5832
lfingers 7.12502
lthumb 8.90613 55.3753
rfemur -1.34061 -4.26431 21.9975
rtibia 31.2061
rfoot -22.5782 -2.76166
rtoes -4.23405
lfemur -14.3674 11.7306 -23.9768
ltibia 38.6904
lfoot -17.2023 7.07485
ltoes 2.75306
253
root -11.9612 17.5032 4.36392 -163.672 80.0997 -162.249
lowerback 12.5294 2.26895 1.69374
upperback 0.204315 3.37878 1.10647
thorax -6.78472 1.63072 -0.401042
lowerneck -17.2651 -8.76439 -13.1034
upperneck 29.3781 -11.4206 10.662
head 14.4447 -4.81067 4.54063
rclavicle 4.70033e-014 -1.63997e-014
rhumerus -35.9016 -14.9563 -75.7857
rradius 34.1148
rwrist 5.81606
rhand -19.4048 4.16446
rfingers 7.12502
rthumb 6.91437 -25.7026
lclavicle 4.70033e-014 -1.63997e-014
lhumerus -37.0431 9.22892 78.2904
lradius 37.7474
lwrist -3.62423
lhand -17.3149 25.5052
lfingers 7.12502
lthumb 8.9315 55.2962
rfemur -1.51575 -4.80266 22.3454
rtibia 31.7842
rfoot -22.4034 -3.06192
rtoes -5.38428
lfemur -13.9132 10.8471 -23.7603
ltibia 38.0065
lfoot -17.4165 7.23325
ltoes 6.36308
254
root -11.9248 17.5052 4.39989 -166.072 79.7577 -164.488
lowerback 12.66 2.23321 1.24645
upperback 0.269829 3.26535 1.05825
thorax -6.81186 1.58922 -0.184779
lowerneck -17.3689 -8.67122 -12.8706
upperneck 29.3538 -11.3402 10.6523
head 14.4243 -4.74724 4.51045
rclavicle 3.39332e-014 1.78906e-015
rhumerus -35.7696 -14.8742 -75.9643
rradius 34.1699
rwrist 5.65343
rhand -19.3084 4.1393
rfingers 7.12502
rthumb 7.00746 -25.7247
lclavicle 3.39332e-014 1.78906e-015
lhumerus -37.1815 9.22881 78.2498
lradius 38.1241
lwrist -3.67842
lhand -16.8743 26.148
lfingers 7.12502
lthumb 9.35661 55.9203
rfemur -1.54868 -5.40786 22.0932
rtibia 32.4456
rfoot -22.2478 -2.93466
rtoes -5.33917
lfemur -13.2278 9.7355 -23.9167
ltibia 37.4247
lfoot -17.8108 7.72644
ltoes 8.55295
255
root -11.888 17.5032 4.4342 -168.123 79.3701 -166.396
lowerback 12.7458 2.18212 0.849903
upperback 0.324965 3.14229 1.07163
thorax -6.82431 1.54274 0.0718845
lowerneck -17.4352 -8.61278 -12.7729
upperneck 29.3608 -11.2494 10.5688
head 14.4131 -4.70558 4.47581
rclavicle 1.3418e-015 1.18277e-014
rhumerus -35.7166 -14.8203 -76.0117
rradius 34.357
rwrist 5.71139
rhand -19.2211 4.11495
rfingers 7.12502
rthumb 7.09173 -25.7462
lclavicle 1.3418e-015 1.18277e-014
lhumerus -37.2028 9.1088 78.3528
lradius 38.1082
lwrist -3.49179
lhand -16.8646 26.3656
lfingers 7.12502
lthumb 9.36603 56.1375
rfemur -1.64051 -6.19674 21.8334
rtibia 33.2517
rfoot -22.1039 -2.66342
rtoes -5.81167
lfemur -12.5628 8.73585 -23.9825
ltibia 36.9151
lfoot -17.9587 7.8669
ltoes 8.48809
256
root -11.8514 17.5116 4.47143 -168.933 78.86 -167.132
lowerback 12.7527 2.11734 0.641037
upperback 0.365909 3.02974 1.11772
thorax -6.79802 1.49618 0.258971
lowerneck -17.452 -8.57506 -12.5435
upperneck 29.2985 -11.2221 10.45
head 14.3571 -4.68338 4.38953
rclavicle 3.97631e-014 1.31198e-014
rhumerus -35.6542 -14.8198 -76.1162
rradius 34.5477
rwrist 5.86539
rhand -19.3682 4.092
rfingers 7.12502
rthumb 6.94969 -25.7739
lclavicle 3.97631e-014 1.31198e-014
lhumerus -37.1027 9.14801 78.3872
lradius 37.7917
lwrist -3.49259
lhand -17.2592 25.8137
lfingers 7.12502
lthumb 8.98521 55.6023
rfemur -1.94004 -6.9561 21.8279
rtibia 34.2915
rfoot -22.0388 -2.22864
rtoes -6.03923
lfemur -12.0089 7.751 -23.698
ltibia 36.4129
lfoot -18.1235 6.81262
ltoes 10.7246
257
root -11.8167 17.5137 4.51201 -170.757 78.3562 -168.902
lowerback 12.7975 2.10077 0.165686
upperback 0.395554 2.9402 1.13839
thorax -6.81635 1.46824 0.563287
lowerneck -17.4413 -8.57803 -12.5269
upperneck 29.2949 -11.2203 10.4226
head 14.3495 -4.6835 4.37592
rclavicle -5.85731e-014 -1.59028e-015
rhumerus -35.5961 -14.8745 -76.1046
rradius 34.6613
rwrist 5.88955
rhand -19.3234 4.10133
rfingers 7.12502
rthumb 6.993 -25.7632
lclavicle -5.85731e-014 -1.59028e-015
lhumerus -37.0401 9.22017 78.4813
lradius 37.5721
lwrist -3.79516
lhand -17.1619 25.1791
lfingers 7.12502
lthumb 9.07913 54.9637
rfemur -2.37889 -7.62485 21.6048
rtibia 35.5668
rfoot -21.9232 -1.89969
rtoes -6.56496
lfemur -11.482 7.19017 -23.6729
ltibia 35.9121
lfoot -18.4602 5.78996
ltoes 12.7122
258
root -11.7859 17.5041 4.552 -172.408 77.8408 -170.434
lowerback 12.9649 2.08435 -0.261667
upperback 0.399841 2.86018 1.18169
thorax -6.92815 1.44363 0.858249
lowerneck -17.3388 -8.59575 -12.6843
upperneck 29.3237 -11.2422 10.5468
head 14.3657 -4.69442 4.45491
rclavicle 4.92924e-014 -5.96354e-016
rhumerus -35.6131 -15.0665 -75.9787
rradius 34.7954
rwrist 6.01461
rhand -19.1475 4.27259
rfingers 7.12502
rthumb 7.1628 -25.5862
lclavicle 4.92924e-014 -5.96354e-016
lhumerus -36.9536 9.09989 78.6501
lradius 37.2627
lwrist -3.81165
lhand -16.9828 25.077
lfingers 7.12502
lthumb 9.2519 54.854
rfemur -2.88612 -8.50031 21.3606
rtibia 37.0241
rfoot -21.5937 -1.68652
rtoes -8.24364
lfemur -10.9649 7.27204 -23.7142
ltibia 35.4346
lfoot -18.2893 5.74657
ltoes 8.02571
259
root -11.7546 17.5032 4.58615 -173.552 77.3095 -171.41
lowerback 13.1256 2.08428 -0.4349
upperback 0.439308 2.83615 1.18473
thorax -6.9844 1.43802 0.958539
lowerneck -17.204 -8.6657 -12.8204
upperneck 29.3213 -11.3663 10.7215
head 14.3797 -4.74124 4.53073
rclavicle 3.2756e-014 8.94531e-016
rhumerus -35.5966 -15.7169 -75.7716
rradius 34.7682
rwrist 6.56362
rhand -18.9669 4.65044
rfingers 7.12502
rthumb 7.33707 -25.2023
lclavicle 3.2756e-014 8.94531e-016
lhumerus -36.729 8.88492 78.8284
lradius 36.8227
lwrist -3.79519
lhand -16.85 24.6838
lfingers 7.12502
lthumb 9.38005 54.4551
rfemur -3.42901 -9.53968 21.0998
rtibia 38.6546
rfoot -21.0195 -1.05444
rtoes -8.51745
lfemur -10.4429 7.44996 -23.6347
ltibia 34.9548
lfoot -18.0718 5.32696
ltoes 5.4774
